<?xml version="1.0" standalone="no"?>
<!DOCTYPE svg PUBLIC "-//W3C//DTD SVG 20010904//EN"
 "http://www.w3.org/TR/2001/REC-SVG-20010904/DTD/svg10.dtd">
<svg version="1.0" xmlns="http://www.w3.org/2000/svg"
 width="500.000000pt" height="500.000000pt" viewBox="0 0 500.000000 500.000000"
 preserveAspectRatio="xMidYMid meet">
<metadata>
Created by potrace 1.11, written by Peter Selinger 2001-2013
</metadata>
<g transform="translate(0.000000,500.000000) scale(0.100000,-0.100000)"
fill="#000000" stroke="none">
<path d="M2335 4449 c-299 -23 -593 -118 -843 -273 -240 -149 -482 -387 -642
-631 -354 -541 -396 -1303 -105 -1900 222 -458 657 -841 1132 -1000 193 -65
322 -86 565 -92 292 -7 463 15 688 88 473 156 908 536 1139 996 257 514 257
1213 -1 1727 -194 388 -531 719 -918 905 -223 107 -436 162 -696 181 -153 11
-161 11 -319 -1z m390 -504 c608 -91 1078 -540 1211 -1155 27 -121 27 -439 0
-560 -90 -418 -327 -753 -682 -966 -245 -147 -504 -212 -799 -201 -277 11
-507 82 -730 227 -400 261 -641 682 -662 1155 -17 417 130 798 422 1090 327
327 785 478 1240 410z"/>
<path d="M2275 3854 c-262 -46 -505 -170 -702 -357 -220 -210 -357 -467 -408
-761 -19 -115 -19 -337 0 -452 86 -497 441 -911 918 -1069 140 -46 265 -65
426 -65 227 0 422 45 612 141 672 337 946 1155 611 1824 -196 392 -570 671
-992 740 -118 19 -355 18 -465 -1z m420 -969 c79 -40 109 -92 102 -178 -7 -73
-40 -126 -98 -155 -35 -18 -39 -22 -23 -27 128 -42 186 -122 169 -234 -12 -83
-53 -133 -140 -173 -47 -22 -62 -23 -275 -23 l-225 0 -3 413 -2 413 217 -3
218 -3 60 -30z"/>
<path d="M2320 2700 l0 -130 128 0 c140 0 178 11 215 62 28 38 28 108 1 145
-31 41 -74 52 -216 52 l-128 1 0 -130z"/>
<path d="M2320 2330 l0 -150 133 0 c155 0 199 10 244 55 30 30 33 38 33 95 0
57 -3 65 -33 95 -45 45 -89 55 -244 55 l-133 0 0 -150z"/>
</g>
</svg>
